<?xml version="1.0" standalone="no"?>
<!DOCTYPE svg PUBLIC "-//W3C//DTD SVG 20010904//EN"
 "http://www.w3.org/TR/2001/REC-SVG-20010904/DTD/svg10.dtd">
<svg version="1.0" xmlns="http://www.w3.org/2000/svg"
 width="300.000000pt" height="140.000000pt" viewBox="0 0 300.000000 140.000000"
 preserveAspectRatio="xMidYMid meet">
<metadata>
Created by potrace 1.10, written by Peter Selinger 2001-2011
</metadata>
<g transform="translate(0.000000,140.000000) scale(0.100000,-0.100000)"
fill="#000000" stroke="none">
<path d="M1253 1290 c-17 -10 -37 -28 -42 -39 -7 -12 -11 -100 -11 -230 l0
-209 26 -31 c39 -46 77 -53 284 -49 269 5 260 -5 261 287 1 227 -2 240 -54
271 -29 18 -52 20 -232 20 -180 0 -203 -2 -232 -20z m432 -24 c43 -18 57 -45
53 -104 l-4 -47 -17 37 c-19 43 -49 62 -74 51 -10 -5 -45 -7 -78 -6 -33 2 -67
3 -75 3 -8 0 -59 -1 -113 -1 l-99 -1 -14 -34 c-16 -38 -34 -37 -34 3 0 36 27
89 53 101 35 17 360 15 402 -2z m-352 -92 c3 -3 2 -16 -3 -29 -6 -16 -5 -27 4
-34 23 -19 44 -3 42 32 -1 26 3 33 22 35 20 3 23 0 22 -25 -1 -15 -1 -30 -1
-33 3 -8 4 -141 2 -203 -1 -54 -3 -58 -23 -55 -21 3 -24 10 -28 71 -3 37 -9
67 -15 67 -5 0 -12 -30 -15 -67 -5 -63 -7 -68 -29 -68 -21 0 -23 5 -28 65 -2
36 -8 69 -14 74 -16 17 -11 96 6 103 11 4 14 14 11 34 -2 15 -1 30 2 33 7 8
37 8 45 0z m175 -24 c-3 -18 1 -35 9 -41 15 -13 18 -90 4 -105 -6 -5 -11 -38
-13 -74 -3 -57 -5 -65 -24 -68 -19 -3 -22 3 -28 60 -3 35 -9 87 -12 115 -5 38
-3 58 7 69 7 9 12 29 11 45 -3 26 0 29 23 29 25 0 27 -3 23 -30z m88 15 c4 -8
1 -22 -6 -29 -9 -12 -7 -17 7 -25 27 -14 43 0 40 34 -2 26 1 30 23 30 22 0 25
-4 22 -31 -2 -21 2 -33 12 -37 18 -7 23 -91 7 -102 -6 -3 -13 -37 -17 -76 -6
-64 -9 -70 -28 -67 -18 3 -21 11 -24 63 -5 111 -28 114 -34 5 -3 -57 -7 -65
-25 -68 -17 -3 -21 4 -26 45 -3 26 -4 93 -2 148 2 55 4 106 5 113 0 17 39 15
46 -3z m144 -268 c0 -68 -2 -75 -29 -101 l-28 -27 -179 -1 c-225 0 -208 -2
-239 25 -21 18 -28 34 -31 75 -6 66 10 103 20 46 11 -71 4 -69 227 -70 152 0
204 3 214 13 7 7 16 35 20 63 10 74 25 61 25 -23z"/>
<path d="M1478 1085 c-7 -32 -5 -39 9 -34 5 2 6 18 3 34 l-6 30 -6 -30z"/>
<path d="M384 603 c-3 -21 -12 -69 -20 -106 -18 -89 -18 -97 6 -97 11 0 20 7
20 15 0 9 9 15 25 15 16 0 25 -6 25 -15 0 -8 9 -15 20 -15 24 0 24 1 5 105 -8
44 -15 92 -15 108 0 23 -4 27 -30 27 -26 0 -30 -4 -36 -37z m48 -98 c2 -32 -1
-40 -15 -43 -13 -3 -17 3 -17 30 0 18 3 44 7 57 8 31 20 10 25 -44z"/>
<path d="M588 552 c3 -70 0 -91 -12 -101 -19 -16 -36 -6 -36 20 0 14 -7 19
-26 19 -20 0 -25 -4 -20 -16 3 -9 6 -20 6 -25 0 -17 40 -49 60 -49 12 0 32 11
45 25 23 22 25 32 25 120 0 92 -1 95 -22 95 -22 0 -23 -2 -20 -88z"/>
<path d="M660 520 c0 -115 1 -120 21 -120 20 0 21 4 18 85 -2 47 -1 85 2 85 4
0 13 -10 21 -22 l15 -22 12 22 c21 39 26 24 22 -63 -3 -81 -2 -85 18 -85 20 0
21 5 21 120 0 119 0 120 -23 120 -16 0 -28 -9 -36 -27 -12 -27 -13 -27 -27 -8
-8 10 -14 22 -14 27 0 4 -11 8 -25 8 l-25 0 0 -120z"/>
<path d="M856 538 c-10 -57 -20 -111 -23 -120 -3 -13 1 -18 16 -18 12 0 21 7
21 15 0 9 9 15 24 15 13 0 26 -7 30 -15 3 -8 15 -15 27 -15 16 0 19 4 14 18
-4 9 -14 63 -23 120 -16 99 -17 102 -42 102 -25 0 -26 -4 -44 -102z m57 -26
c4 -32 2 -45 -9 -49 -23 -8 -26 0 -18 56 8 59 19 56 27 -7z"/>
<path d="M990 520 l0 -121 58 3 c49 3 57 6 57 23 0 17 -6 19 -37 17 l-38 -4 0
101 c0 94 -1 101 -20 101 -19 0 -20 -7 -20 -120z"/>
<path d="M1250 638 c0 -2 -9 -50 -20 -108 -11 -58 -20 -111 -20 -117 0 -7 9
-13 20 -13 11 0 20 7 20 15 0 9 9 15 25 15 16 0 25 -6 25 -15 0 -8 9 -15 20
-15 23 0 23 -5 1 130 -16 102 -18 105 -44 108 -15 2 -27 2 -27 0z m40 -135 c0
-32 -4 -43 -15 -43 -16 0 -20 44 -8 88 9 35 23 7 23 -45z"/>
<path d="M1367 523 c2 -110 4 -118 23 -121 18 -3 20 1 17 44 -3 63 15 66 37 4
15 -41 22 -50 42 -50 13 0 24 1 24 3 0 1 -15 33 -34 71 l-35 70 30 42 c34 50
35 54 9 54 -12 0 -28 -15 -42 -40 -29 -51 -42 -51 -33 0 6 37 5 40 -17 40 -23
0 -23 0 -21 -117z"/>
<path d="M1530 520 c0 -113 1 -120 20 -120 18 0 20 7 20 55 0 52 1 55 25 55
24 0 25 -3 25 -56 0 -50 2 -55 20 -52 12 2 21 6 20 11 0 4 0 57 0 117 0 105
-1 110 -21 110 -19 0 -21 -5 -17 -45 3 -44 3 -45 -27 -45 -30 0 -30 1 -27 45
4 40 2 45 -17 45 -20 0 -21 -5 -21 -120z"/>
<path d="M1680 620 c0 -15 7 -20 26 -20 l26 0 -4 -100 -4 -100 24 0 24 0 -4
100 c-4 99 -3 100 19 100 16 0 23 6 23 20 0 18 -7 20 -65 20 -58 0 -65 -2 -65
-20z"/>
<path d="M1826 543 c-10 -54 -20 -108 -23 -120 -4 -18 -1 -23 16 -23 12 0 21
6 21 15 0 9 9 15 24 15 13 0 26 -7 30 -15 3 -8 13 -15 22 -15 14 0 16 7 10 38
-3 20 -11 74 -18 120 -12 79 -13 82 -38 82 -25 0 -27 -4 -44 -97z m56 -33 c2
-36 -1 -45 -15 -48 -19 -4 -21 9 -10 71 7 48 20 36 25 -23z"/>
<path d="M1960 520 c0 -113 1 -120 20 -120 18 0 20 7 20 55 0 55 4 61 34 49
12 -4 16 -20 16 -56 0 -45 2 -49 22 -46 20 3 22 8 19 53 -1 28 -7 55 -11 60
-5 6 -2 19 6 29 20 28 18 43 -11 71 -18 19 -35 25 -70 25 l-45 0 0 -120z m89
71 c21 -13 5 -41 -24 -41 -20 0 -25 5 -25 25 0 26 22 33 49 16z"/>
<path d="M2228 537 c-9 -56 -20 -110 -23 -119 -6 -14 -2 -18 14 -18 12 0 24 7
27 15 4 8 17 15 30 15 15 0 24 -6 24 -15 0 -8 9 -15 20 -15 16 0 19 5 15 23
-5 25 -35 204 -35 212 0 3 -12 5 -27 5 -28 0 -28 -1 -45 -103z m61 -50 c1 -22
-3 -28 -16 -25 -14 3 -17 12 -14 48 1 25 6 49 9 55 7 11 19 -34 21 -78z"/>
<path d="M2350 621 c0 -16 8 -20 44 -23 l44 -3 -44 -75 c-23 -41 -43 -85 -43
-97 -1 -22 3 -23 64 -23 58 0 65 2 65 20 0 17 -7 20 -40 20 -22 0 -40 2 -40 5
0 3 18 39 40 79 22 40 40 82 40 94 0 20 -5 22 -65 22 -58 0 -65 -2 -65 -19z"/>
<path d="M2522 558 c-7 -46 -15 -100 -18 -120 -6 -31 -4 -38 10 -38 9 0 19 7
22 15 4 8 17 15 30 15 15 0 24 -6 24 -15 0 -8 9 -15 20 -15 11 0 20 1 20 3 0
1 -9 52 -20 112 -11 61 -20 113 -20 118 0 4 -13 7 -28 7 -27 0 -28 -2 -40 -82z
m57 -71 c1 -22 -3 -28 -16 -25 -14 3 -17 12 -14 48 1 25 6 49 9 55 7 11 19
-34 21 -78z"/>
<path d="M2650 520 l0 -120 35 0 c47 0 91 23 99 52 3 13 6 49 6 81 0 76 -27
107 -95 107 l-45 0 0 -120z m88 68 c16 -16 16 -120 0 -136 -7 -7 -20 -12 -30
-12 -16 0 -18 10 -18 80 0 70 2 80 18 80 10 0 23 -5 30 -12z"/>
<path d="M925 330 c3 -5 14 -10 23 -11 11 -1 8 -4 -8 -9 -23 -7 -23 -8 -3 -9
12 -1 25 -5 28 -11 4 -7 -66 -11 -202 -12 -114 -1 -185 -3 -156 -5 l51 -4 -2
-49 c-2 -31 1 -50 8 -50 7 0 10 18 8 50 l-4 50 41 0 c30 0 41 -4 41 -15 0 -10
-10 -15 -30 -15 -31 0 -40 -13 -18 -26 6 -4 14 -2 16 4 8 25 32 12 32 -18 0
-16 5 -30 10 -30 6 0 10 23 10 50 l0 50 40 0 c30 0 40 -4 40 -16 0 -8 -5 -12
-10 -9 -19 12 -50 -6 -50 -29 0 -23 17 -46 34 -46 6 0 5 5 -2 12 -19 19 -15
48 8 48 16 0 20 -7 20 -30 0 -16 5 -30 10 -30 6 0 10 23 10 50 0 28 5 50 10
50 6 0 10 -22 10 -50 0 -27 5 -50 10 -50 6 0 10 23 10 50 l0 50 35 0 c39 0 48
-17 13 -22 -17 -2 -23 -10 -23 -28 0 -18 6 -26 23 -28 12 -2 22 -8 22 -13 0
-5 5 -9 11 -9 6 0 8 8 4 19 -7 24 4 51 21 51 16 0 19 -26 4 -35 -15 -9 -12
-25 4 -19 35 14 27 64 -10 64 -39 0 -28 18 14 23 l37 4 -37 1 c-31 2 -40 7
-53 32 -10 18 -23 30 -36 30 -11 0 -17 -4 -14 -10z m55 -104 c0 -8 -5 -18 -11
-22 -14 -8 -33 11 -25 25 10 16 36 13 36 -3z"/>
<path d="M1935 330 c3 -5 14 -10 23 -11 11 -1 8 -4 -8 -9 -23 -7 -23 -8 -3 -9
12 -1 25 -5 28 -11 4 -7 -68 -11 -207 -12 -117 -1 -189 -3 -160 -5 l52 -4 0
-50 c0 -27 5 -49 10 -49 6 0 10 23 10 50 l0 50 40 0 c29 0 40 -4 40 -15 0 -10
-10 -15 -30 -15 -20 0 -30 -5 -30 -15 0 -8 7 -15 15 -15 8 0 15 5 15 10 0 6 7
10 16 10 12 0 15 -7 12 -30 -3 -21 0 -30 10 -30 9 0 13 10 11 33 -4 64 -2 67
42 67 43 0 52 -22 11 -25 -35 -3 -45 -18 -31 -48 7 -15 19 -27 27 -27 13 0 13
3 -1 18 -24 27 -21 42 9 42 23 0 26 -3 22 -30 -3 -16 -1 -30 4 -30 4 0 8 23 8
50 0 40 3 50 16 50 14 0 16 -9 12 -50 -3 -28 -1 -50 3 -50 5 0 9 23 9 50 l0
50 40 0 c45 0 55 -17 13 -22 -22 -2 -28 -8 -28 -28 0 -18 6 -26 23 -28 12 -2
22 -8 22 -13 0 -5 5 -9 10 -9 6 0 10 13 10 29 0 17 5 33 11 36 17 11 24 -4 11
-25 -14 -23 1 -36 18 -15 17 21 8 50 -18 53 -36 5 -25 22 16 23 l37 2 -37 6
c-23 4 -44 16 -58 34 -20 25 -59 40 -45 17z m45 -110 c0 -11 -7 -20 -15 -20
-8 0 -15 9 -15 20 0 11 7 20 15 20 8 0 15 -9 15 -20z"/>
<path d="M2283 323 c-7 -2 -13 -13 -13 -24 0 -17 -9 -19 -87 -21 -53 -1 -69
-3 -40 -5 51 -4 66 -23 17 -23 -19 0 -33 -6 -37 -16 -8 -21 13 -64 33 -64 13
0 12 4 -6 27 -14 19 -17 30 -10 37 8 8 13 7 19 -3 6 -9 11 -10 15 -2 14 22 22
10 18 -24 -3 -21 0 -35 7 -35 7 0 11 20 11 50 0 28 5 50 10 50 6 0 10 -22 10
-50 0 -27 5 -50 10 -50 6 0 10 23 10 50 0 39 3 50 16 50 13 0 15 -9 12 -50 -1
-28 0 -50 5 -50 4 0 7 23 7 50 0 43 3 50 20 50 20 0 28 -24 10 -35 -11 -7 -2
-35 11 -35 5 0 9 16 9 35 0 27 4 35 18 35 14 0 16 -8 14 -50 -3 -32 0 -50 7
-50 7 0 11 20 11 49 0 30 5 51 13 54 9 4 9 6 -2 6 -7 1 -26 12 -43 26 -28 24
-49 29 -75 18z m58 -23 l24 -19 -37 -1 c-31 0 -38 3 -38 20 0 25 21 26 51 0z"/>
<path d="M1113 273 c19 -3 27 -10 27 -25 0 -14 -5 -18 -15 -14 -22 8 -18 -9 9
-41 13 -15 28 -24 33 -20 4 5 0 13 -10 18 -25 14 -21 29 8 29 20 0 25 -5 25
-25 0 -14 4 -25 10 -25 5 0 8 21 5 50 -3 39 -1 50 11 50 10 0 14 -13 14 -50 0
-27 5 -50 10 -50 6 0 10 23 10 51 0 43 2 50 14 40 11 -9 15 -9 19 1 4 9 6 8 6
-2 1 -9 -4 -21 -10 -27 -16 -16 -2 -33 27 -33 15 0 24 -6 24 -15 0 -8 5 -15
10 -15 6 0 10 23 10 50 0 40 3 50 16 50 13 0 15 -7 11 -35 -5 -33 12 -63 21
-37 2 7 13 12 24 12 15 0 19 -5 15 -20 -3 -11 0 -20 6 -20 8 0 11 17 9 50 -3
41 -1 50 12 50 13 0 16 -11 16 -50 0 -31 4 -50 11 -50 8 0 10 16 6 49 -4 34
-2 51 6 55 7 2 -30 5 -80 5 l-93 1 0 -35 c0 -28 -4 -35 -20 -35 -21 0 -27 15
-10 25 6 3 10 14 10 25 0 16 -10 18 -112 18 -62 -1 -101 -3 -85 -5z m77 -23
c0 -11 -6 -20 -14 -20 -7 0 -16 9 -19 20 -4 15 0 20 14 20 12 0 19 -7 19 -20z
m250 -5 c0 -18 -5 -25 -20 -25 -15 0 -20 7 -20 25 0 18 5 25 20 25 15 0 20 -7
20 -25z"/>
<path d="M570 236 c0 -21 28 -46 51 -46 13 0 19 7 19 23 0 27 -9 39 -22 31 -5
-3 -4 -12 3 -20 6 -8 9 -17 6 -21 -9 -8 -37 17 -37 33 0 8 -4 14 -10 14 -5 0
-10 -6 -10 -14z"/>
<path d="M1580 239 c0 -25 25 -51 46 -47 25 4 33 48 8 48 -13 0 -14 -3 -5 -14
9 -11 9 -16 0 -22 -7 -4 -14 -3 -16 3 -2 6 -10 19 -18 29 -12 15 -14 16 -15 3z"/>
</g>
</svg>
